<svg width="195" height="504" viewBox="0 0 195 504" fill="none" xmlns="http://www.w3.org/2000/svg">
<g clip-path="url(#clip0_1_9453)">
<path d="M128.387 227.194L128.561 226.826C128.561 226.826 128.474 226.826 128.43 226.826C128.43 226.941 128.408 227.079 128.408 227.194H128.387Z" fill="#3B7689"/>
<path d="M157.98 80.6105L-125.969 198.309L-160.457 122.708L194.751 0L157.98 80.6105Z" fill="url(#paint0_linear_1_9453)"/>
<path d="M123.495 198.31L-94.0624 301.095L-125.965 231.193L157.984 122.709L123.495 198.31Z" fill="url(#paint1_linear_1_9453)"/>
<path d="M83.8169 306.128L-68.1977 383.912L-94.0586 327.199L123.499 231.193L83.8169 306.128Z" fill="url(#paint2_linear_1_9453)"/>
<path d="M60.2243 395.975L-27.9203 499.863L-63.3867 422.125L91.5833 327.198L60.2243 395.975Z" fill="url(#paint3_linear_1_9453)"/>
<path d="M128.425 187.188C128.425 187.188 128.512 187.188 128.555 187.188L157.959 122.709C134.51 143.206 72.0741 157.867 -1.24924 157.867C-74.5726 157.867 -137.008 143.206 -160.457 122.709L-131.054 187.188C-131.054 187.188 -130.967 187.188 -130.923 187.188C-130.923 187.303 -130.902 187.441 -130.902 187.556L-125.99 198.31C-110.582 215.406 -60.599 227.907 -1.27097 227.907C58.0571 227.907 108.04 215.384 123.448 198.31L128.36 187.556C128.36 187.441 128.382 187.303 128.382 187.188H128.425Z" fill="url(#paint4_linear_1_9453)"/>
<path d="M-1.22603 260.79C-60.5541 260.79 -110.537 248.266 -125.945 231.193L-94.0646 301.095C-79.8954 312.883 -43.6901 321.271 -1.22603 321.271C41.2381 321.271 77.4434 312.883 91.6126 301.095L123.493 231.193C108.085 248.289 58.102 260.79 -1.22603 260.79Z" fill="url(#paint5_linear_1_9453)"/>
<path d="M-1.21998 347.351C-43.6841 347.351 -79.8894 338.964 -94.0586 327.176L-63.3732 394.435C-52.5724 401.996 -28.45 407.258 -0.372437 407.258C25.7927 407.258 48.5243 402.685 60.2378 395.952L91.6186 327.176C77.4494 338.964 41.2441 347.351 -1.21998 347.351Z" fill="url(#paint6_linear_1_9453)"/>
<path d="M-27.9203 499.864C-21.5963 502.369 -11.8169 504 -0.82061 504C9.58896 504 18.9119 502.553 25.2576 500.255L60.2242 423.643C48.5107 430.375 25.7792 434.948 -0.385983 434.948C-28.4636 434.948 -52.5642 429.686 -63.3867 422.126L-27.9203 499.864Z" fill="url(#paint7_linear_1_9453)"/>
<path d="M-1.23059 31.4353C-81.8559 31.4353 -153.245 19.0496 -197.23 0L-160.46 80.6105C-137.011 101.108 -74.5757 115.768 -1.25235 115.768C72.071 115.768 134.507 101.108 157.955 80.6105L194.748 0C150.784 19.0496 79.3729 31.4353 -1.25235 31.4353H-1.23059Z" fill="url(#paint8_linear_1_9453)"/>
</g>
<defs>
<linearGradient id="paint0_linear_1_9453" x1="-130.684" y1="160.945" x2="34.3188" y2="93.3511" gradientUnits="userSpaceOnUse">
<stop stop-color="#E35E2C"/>
<stop offset="0.25" stop-color="#D14E23"/>
<stop offset="0.75" stop-color="#A4240C"/>
<stop offset="1" stop-color="#8C0E00"/>
</linearGradient>
<linearGradient id="paint1_linear_1_9453" x1="-109.079" y1="266.742" x2="60.8015" y2="193.476" gradientUnits="userSpaceOnUse">
<stop stop-color="#FCC829"/>
<stop offset="0.2" stop-color="#F39C24"/>
<stop offset="0.46" stop-color="#EA6C1F"/>
<stop offset="0.69" stop-color="#E3491C"/>
<stop offset="0.88" stop-color="#DF3319"/>
<stop offset="1" stop-color="#DE2C19"/>
</linearGradient>
<linearGradient id="paint2_linear_1_9453" x1="-80.7804" y1="355.372" x2="73.2487" y2="286.205" gradientUnits="userSpaceOnUse">
<stop offset="0.24" stop-color="#66BC4D"/>
<stop offset="1" stop-color="#FC9B00"/>
</linearGradient>
<linearGradient id="paint3_linear_1_9453" x1="-43.9584" y1="459.42" x2="47.7146" y2="383.492" gradientUnits="userSpaceOnUse">
<stop stop-color="#007DB7"/>
<stop offset="1" stop-color="#2F9C18"/>
</linearGradient>
<linearGradient id="paint4_linear_1_9453" x1="-152.938" y1="106.853" x2="126.891" y2="191.2" gradientUnits="userSpaceOnUse">
<stop stop-color="#FEB220"/>
<stop offset="1" stop-color="#E25B2C"/>
</linearGradient>
<linearGradient id="paint5_linear_1_9453" x1="-118.839" y1="211.936" x2="94.2528" y2="290.792" gradientUnits="userSpaceOnUse">
<stop stop-color="#FCF529"/>
<stop offset="1" stop-color="#FCC729"/>
</linearGradient>
<linearGradient id="paint6_linear_1_9453" x1="-84.8225" y1="315.388" x2="71.0938" y2="379.843" gradientUnits="userSpaceOnUse">
<stop offset="0.01" stop-color="#B8E93F"/>
<stop offset="1" stop-color="#66BC4D"/>
</linearGradient>
<linearGradient id="paint7_linear_1_9453" x1="-46.9139" y1="402.732" x2="45.7006" y2="480.255" gradientUnits="userSpaceOnUse">
<stop stop-color="#00ABEB"/>
<stop offset="0.21" stop-color="#00A6E6"/>
<stop offset="0.46" stop-color="#009AD7"/>
<stop offset="0.73" stop-color="#0085BF"/>
<stop offset="1" stop-color="#006AA1"/>
</linearGradient>
<linearGradient id="paint8_linear_1_9453" x1="-192.21" y1="-2.75749" x2="160.714" y2="70.56" gradientUnits="userSpaceOnUse">
<stop stop-color="#E7521B"/>
<stop offset="1" stop-color="#DD2719"/>
</linearGradient>
<clipPath id="clip0_1_9453">
<rect width="195" height="504" fill="white"/>
</clipPath>
</defs>
</svg>
