<svg width="20" height="20" viewBox="0 0 20 20" fill="none" xmlns="http://www.w3.org/2000/svg">
<path d="M3.74389 5C3.57877 5 3.4213 5.0328 3.27739 5.09071L10.2166 11.2718C10.4584 11.4875 10.7268 11.4873 10.9681 11.2718L17.8943 5.09071C17.7504 5.0328 17.593 5 17.4278 5H3.74389ZM2.51285 6.06905C2.50498 6.12573 2.5 6.18509 2.5 6.24399V14.5373C2.5 14.7074 2.53589 14.8693 2.5972 15.0168L7.38527 10.4166L2.51296 6.06905H2.51285ZM18.6589 6.06905L13.7995 10.4101L18.5811 15.0103C18.6405 14.8649 18.6718 14.7046 18.6718 14.5373V6.24399C18.6718 6.18509 18.6666 6.12573 18.659 6.06905H18.6589ZM12.8665 11.2459L11.7975 12.2048C11.1178 12.8117 10.0668 12.8107 9.38723 12.2048L8.31816 11.2524L3.60135 15.7748C3.64744 15.78 3.69639 15.7812 3.74389 15.7812H17.4278C17.4731 15.7812 17.5199 15.7792 17.5639 15.7748L12.8665 11.2459Z" fill="#FF5001"/>
</svg>
