<svg width="20" height="20" viewBox="0 0 20 20" fill="none" xmlns="http://www.w3.org/2000/svg">
<path d="M10.1608 0.625C6.37384 0.625 3.29297 3.70587 3.29297 7.49275C3.29297 12.1924 9.43897 19.0917 9.70064 19.3831C9.94642 19.6569 10.3755 19.6564 10.6209 19.3831C10.8825 19.0917 17.0285 12.1924 17.0285 7.49275C17.0285 3.70587 13.9476 0.625 10.1608 0.625ZM10.1608 10.9481C8.25546 10.9481 6.70544 9.39804 6.70544 7.49275C6.70544 5.58746 8.2555 4.03743 10.1608 4.03743C12.066 4.03743 13.616 5.5875 13.616 7.49279C13.616 9.39808 12.066 10.9481 10.1608 10.9481Z" fill="#FF5001"/>
</svg>
