<svg width="68" height="27" viewBox="0 0 68 27" fill="none" xmlns="http://www.w3.org/2000/svg">
<path d="M6.1717 0.0446777L6.12622 2.27641H6.1489C7.60636 2.27641 8.74507 3.43781 11.2273 7.58246L11.3866 7.83297V7.85573L12.7758 5.78342V5.76064C12.457 5.23686 12.1381 4.73587 11.8421 4.30319C11.5005 3.77941 11.1589 3.32395 10.8401 2.91404C9.17771 0.841719 7.81134 0.0446777 6.1717 0.0446777Z" fill="url(#paint0_linear_8913_517)"/>
<path d="M6.14848 0.0446777C4.50884 0.0446777 3.05145 1.11499 2.00391 2.73186C2.00391 2.73186 2.00391 2.73186 2.00391 2.75463L3.93959 3.80218C3.93959 3.80218 3.93959 3.80218 3.93959 3.7794C4.55446 2.86849 5.30598 2.27641 6.1258 2.25364H6.14848V0.0446777Z" fill="url(#paint1_linear_8913_517)"/>
<path d="M2.0044 2.73193C2.0044 2.75471 2.0044 2.75471 2.0044 2.73193C1.29844 3.82503 0.797443 5.12307 0.52417 6.55776V6.58054L2.68758 7.08153V7.05876C2.91531 5.80626 3.34799 4.64484 3.94008 3.77948C3.94008 3.77948 3.94008 3.77948 3.94008 3.75671L2.0044 2.73193Z" fill="url(#paint2_linear_8913_517)"/>
<path d="M2.66458 7.08204L0.501165 6.58105V6.60382C0.341756 7.3781 0.273438 8.17515 0.273438 8.9722V8.99496L2.48244 9.19992V9.17714C2.48244 9.1316 2.48244 9.08606 2.48244 9.04051C2.50521 8.35733 2.55071 7.71968 2.66458 7.08204Z" fill="url(#paint3_linear_8913_517)"/>
<path d="M2.57391 9.85964C2.52836 9.63191 2.50552 9.40419 2.50552 9.17646V9.15369L0.296631 8.94873V8.97151C0.296631 9.42697 0.342176 9.90519 0.410495 10.3606V10.3834L2.57391 9.85964Z" fill="url(#paint4_linear_8913_517)"/>
<path d="M3.0745 10.9986C2.824 10.7253 2.66466 10.3609 2.57357 9.85993V9.83716L0.410156 10.3382V10.3609C0.569566 11.2263 0.888407 11.9322 1.34386 12.4788C1.34386 12.4788 1.34377 12.4788 1.36655 12.5016L3.0745 10.9986C3.0745 11.0213 3.0745 11.0213 3.0745 10.9986Z" fill="url(#paint5_linear_8913_517)"/>
<path d="M9.4966 4.84985C8.19855 6.85386 7.40146 8.10636 7.40146 8.10636C5.67073 10.8163 5.05587 11.4312 4.09941 11.4312C3.6895 11.4312 3.34793 11.2946 3.09743 11.0213C3.09743 11.0213 3.09741 11.0213 3.07464 10.9985L1.34399 12.4787C1.34399 12.4787 1.34391 12.4787 1.36668 12.5015C2.00432 13.2302 2.89248 13.6402 4.00834 13.6402C5.69353 13.6402 6.90051 12.8431 9.04115 9.10836C9.04115 9.10836 9.92931 7.53704 10.5442 6.44395C10.157 5.85186 9.81542 5.30531 9.4966 4.84985Z" fill="#0082FB"/>
<path d="M11.8192 1.70679C11.7965 1.70679 11.7965 1.70679 11.8192 1.70679C11.4549 2.09392 11.1132 2.50383 10.8171 2.91374C11.136 3.32365 11.4776 3.77911 11.8192 4.30289C12.2291 3.66525 12.6162 3.16425 12.9806 2.77711C12.9806 2.77711 12.9806 2.7771 13.0033 2.75433L11.8192 1.70679Z" fill="url(#paint6_linear_8913_517)"/>
<path d="M18.1501 1.50213C17.2391 0.591216 16.1461 0.0446777 14.9847 0.0446777C13.7549 0.0446777 12.7302 0.705085 11.7965 1.70709C11.7965 1.70709 11.7965 1.70708 11.7737 1.72985L12.9579 2.77741C12.9579 2.77741 12.9578 2.7774 12.9806 2.75463C13.5955 2.11699 14.1876 1.79818 14.848 1.79818C15.554 1.79818 16.2144 2.13978 16.7837 2.70909C16.7837 2.70909 16.7837 2.70909 16.8065 2.73186L18.1501 1.50213Z" fill="#0082FB"/>
<path d="M20.769 8.65261C20.7235 5.71492 19.6759 3.07328 18.1501 1.52473C18.1501 1.52473 18.1501 1.52473 18.1274 1.50195L16.761 2.70892C16.761 2.70892 16.761 2.70892 16.7838 2.73169C17.9452 3.91587 18.7194 6.12483 18.8105 8.65261V8.67538L20.769 8.65261Z" fill="url(#paint7_linear_8913_517)"/>
<path d="M20.7687 8.67511L18.8103 8.65234V8.67511C18.8103 8.78897 18.8103 8.92562 18.8103 9.03948C18.8103 9.72267 18.6964 10.292 18.4915 10.7019V10.7247L19.9489 12.2504C19.9489 12.2504 19.9489 12.2504 19.9489 12.2277C20.4727 11.4079 20.7459 10.2692 20.7459 8.90284C20.7687 8.81175 20.7687 8.74343 20.7687 8.67511Z" fill="url(#paint8_linear_8913_517)"/>
<path d="M18.5148 10.7026C18.3326 11.067 18.0594 11.2947 17.7178 11.3858L18.3782 13.4809C18.4693 13.4581 18.5604 13.4126 18.6287 13.3898C18.6515 13.3898 18.6742 13.367 18.697 13.3443C18.7197 13.3443 18.7198 13.3215 18.7425 13.3215C19.1752 13.0938 19.5623 12.775 19.8584 12.365C19.8812 12.3423 19.904 12.3195 19.904 12.2967C19.9268 12.274 19.9267 12.2512 19.9495 12.2512C19.9495 12.2512 19.9495 12.2512 19.9495 12.2284L18.5148 10.7026Z" fill="url(#paint9_linear_8913_517)"/>
<path d="M17.2849 11.431C17.08 11.431 16.875 11.3855 16.67 11.3171L15.9868 13.4578C16.374 13.5944 16.7839 13.64 17.2393 13.64C17.6265 13.64 18.0136 13.5716 18.4008 13.4578L17.7404 11.3627C17.6037 11.4082 17.4443 11.431 17.2849 11.431Z" fill="url(#paint10_linear_8913_517)"/>
<path d="M15.9409 10.7026C15.9182 10.7026 15.9182 10.7026 15.9409 10.7026L14.3696 12.3195C14.3696 12.3195 14.3697 12.3195 14.3924 12.3423C14.939 12.9116 15.4627 13.276 16.0548 13.4809L16.738 11.3403C16.4419 11.2264 16.2142 11.0215 15.9409 10.7026Z" fill="url(#paint11_linear_8913_517)"/>
<path d="M15.9183 10.6789C15.4401 10.1324 14.8708 9.22147 13.9599 7.76401L12.7756 5.78279V5.76001L11.3865 7.83234V7.85511L12.2291 9.26702C13.0489 10.6334 13.7093 11.6354 14.3697 12.3186C14.3697 12.3186 14.3698 12.3186 14.3925 12.3413L15.9183 10.6789C15.9183 10.7017 15.9183 10.7017 15.9183 10.6789Z" fill="url(#paint12_linear_8913_517)"/>
<path d="M0.433105 20.6318H2.96079C3.66675 20.6318 4.19052 20.7685 4.55489 21.0645C4.91925 21.3378 5.10152 21.7249 5.10152 22.2259C5.10152 22.9091 4.78264 23.3646 4.12223 23.5923C4.98759 23.82 5.39752 24.2983 5.39752 25.0953C5.39752 25.6191 5.21534 26.029 4.82821 26.325C4.44107 26.6211 3.89448 26.7805 3.18852 26.7805H0.455789V20.6318H0.433105ZM2.82425 23.2507C3.64407 23.2507 4.05395 22.9547 4.05395 22.3626C4.05395 22.0665 3.9628 21.8388 3.75784 21.7022C3.57566 21.5655 3.27963 21.4972 2.86972 21.4972H1.41229V23.2507H2.82425ZM3.12025 25.8924C3.94007 25.8924 4.34996 25.5735 4.34996 24.9587C4.34996 24.6854 4.25891 24.4577 4.05395 24.321C3.87177 24.1844 3.5302 24.0933 3.05197 24.0933H1.41229V25.8696L3.12025 25.8924Z" fill="#1C2B33"/>
<path d="M10.1341 26.7805H9.20048V26.1201C8.85889 26.6439 8.3578 26.8944 7.74293 26.8944C7.19639 26.8944 6.7865 26.735 6.51323 26.3934C6.21718 26.0518 6.08057 25.5736 6.08057 24.9359V22.2032H7.03707V24.8221C7.03707 25.2547 7.10539 25.5508 7.26479 25.7557C7.4242 25.9607 7.65184 26.0518 7.97066 26.0518C8.24394 26.0518 8.49448 25.9835 8.69943 25.8241C8.90439 25.6874 9.08662 25.4825 9.20048 25.2092V22.1804H10.1569V26.7805H10.1341Z" fill="#1C2B33"/>
<path d="M14.3019 26.5071C13.9603 26.7576 13.5049 26.8942 12.9355 26.8942C12.4573 26.8942 12.0246 26.8031 11.683 26.6437C11.3187 26.4843 11.0682 26.2566 10.886 25.9605L11.5236 25.3912C11.6602 25.5962 11.8424 25.7556 12.0701 25.8694C12.2978 25.9833 12.5939 26.0516 12.9127 26.0516C13.5276 26.0516 13.8237 25.8695 13.8237 25.5051C13.8237 25.3457 13.7781 25.2318 13.6642 25.1407C13.5731 25.0496 13.391 24.9813 13.1633 24.9358L12.2751 24.7764C11.8652 24.708 11.5464 24.5486 11.3186 24.3437C11.0909 24.1387 10.9999 23.8427 10.9999 23.4783C10.9999 23.0456 11.1592 22.704 11.5008 22.4535C11.8424 22.203 12.2978 22.0664 12.8672 22.0664C13.2771 22.0664 13.6643 22.1575 13.9831 22.3169C14.3019 22.4763 14.5524 22.704 14.7346 22.9773L14.0742 23.4783C13.9603 23.2961 13.8009 23.1595 13.5731 23.0456C13.3454 22.9318 13.0949 22.8862 12.7989 22.8862C12.5256 22.8862 12.3207 22.9318 12.1613 23.0229C12.0246 23.1139 11.9336 23.2506 11.9336 23.41C11.9336 23.5466 11.979 23.6605 12.0701 23.7516C12.1612 23.8199 12.3206 23.8882 12.5256 23.9338L13.5277 24.116C13.9148 24.1843 14.2336 24.3437 14.4386 24.5714C14.6435 24.7991 14.7574 25.0952 14.7574 25.4368C14.8257 25.8922 14.6435 26.2338 14.3019 26.5071Z" fill="#1C2B33"/>
<path d="M15.6905 21.4291C15.5767 21.3153 15.5083 21.1559 15.5083 20.9965C15.5083 20.8143 15.5767 20.6776 15.6905 20.5638C15.8044 20.4499 15.9638 20.3816 16.146 20.3816C16.3282 20.3816 16.4876 20.4499 16.6015 20.5638C16.7153 20.6776 16.7836 20.837 16.7836 20.9965C16.7836 21.1786 16.7153 21.3153 16.6015 21.4291C16.4876 21.543 16.3282 21.6113 16.146 21.6113C15.9638 21.5886 15.8044 21.543 15.6905 21.4291ZM15.6678 22.2034H16.6241V26.7807H15.6678V22.2034Z" fill="#1C2B33"/>
<path d="M17.6724 22.2037H18.6061V22.8641C18.9704 22.3403 19.4487 22.0898 20.0863 22.0898C20.6328 22.0898 21.0428 22.2493 21.3388 22.5908C21.6348 22.9324 21.7715 23.4107 21.7715 24.0483V26.781H20.8151V24.1622C20.8151 23.7295 20.7468 23.4107 20.5873 23.2285C20.4279 23.0235 20.2002 22.9324 19.8814 22.9324C19.6081 22.9324 19.3575 23.0008 19.1298 23.1602C18.9021 23.3196 18.7427 23.5018 18.6289 23.775V26.8038H17.6724V22.2037Z" fill="#1C2B33"/>
<path d="M24.8452 26.8946C24.3898 26.8946 23.9799 26.8035 23.6383 26.5985C23.2967 26.3936 23.0234 26.1203 22.8185 25.7559C22.6135 25.3916 22.5225 24.9817 22.5225 24.5262C22.5225 24.048 22.6135 23.6381 22.8185 23.2737C23.0006 22.9094 23.2739 22.6361 23.6155 22.4311C23.9571 22.2262 24.3443 22.1123 24.7769 22.1123C25.2096 22.1123 25.5967 22.2262 25.8928 22.4311C26.2116 22.6361 26.4394 22.9321 26.6216 23.2965C26.8037 23.6609 26.872 24.0935 26.872 24.5945V24.8678H23.5016C23.57 25.2322 23.7066 25.5282 23.9571 25.7559C24.2076 25.9609 24.5036 26.0748 24.868 26.0748C25.1641 26.0748 25.4145 26.0292 25.6423 25.9381C25.8472 25.847 26.0522 25.7104 26.2344 25.5282L26.7581 26.1659C26.2571 26.6441 25.6195 26.8946 24.8452 26.8946ZM25.574 23.2509C25.369 23.046 25.0957 22.9321 24.7541 22.9321C24.4353 22.9321 24.162 23.046 23.9343 23.2509C23.7066 23.4787 23.57 23.752 23.5244 24.1163H25.9384C25.8928 23.752 25.7789 23.4559 25.574 23.2509Z" fill="#1C2B33"/>
<path d="M30.8117 26.5071C30.4701 26.7576 30.0146 26.8942 29.4453 26.8942C28.9671 26.8942 28.5344 26.8031 28.1928 26.6437C27.8284 26.4843 27.5779 26.2566 27.3958 25.9605L28.0333 25.3912C28.17 25.5962 28.3521 25.7556 28.5799 25.8694C28.8076 25.9833 29.1037 26.0516 29.4225 26.0516C30.0374 26.0516 30.3334 25.8695 30.3334 25.5051C30.3334 25.3457 30.2878 25.2318 30.174 25.1407C30.0829 25.0496 29.9008 24.9813 29.673 24.9358L28.7849 24.7764C28.375 24.708 28.0561 24.5486 27.8284 24.3437C27.6007 24.1387 27.5096 23.8427 27.5096 23.4783C27.5096 23.0456 27.669 22.704 28.0106 22.4535C28.3521 22.203 28.8076 22.0664 29.3769 22.0664C29.7868 22.0664 30.1741 22.1575 30.4929 22.3169C30.8117 22.4763 31.0621 22.704 31.2443 22.9773L30.5839 23.4783C30.4701 23.2961 30.3106 23.1595 30.0829 23.0456C29.8552 22.9318 29.6047 22.8862 29.3086 22.8862C29.0354 22.8862 28.8305 22.9318 28.671 23.0229C28.5344 23.1139 28.4433 23.2506 28.4433 23.41C28.4433 23.5466 28.4888 23.6605 28.5799 23.7516C28.671 23.8199 28.8304 23.8882 29.0353 23.9338L30.0374 24.116C30.4246 24.1843 30.7434 24.3437 30.9483 24.5714C31.1533 24.7991 31.2671 25.0952 31.2671 25.4368C31.3127 25.8922 31.1533 26.2338 30.8117 26.5071Z" fill="#1C2B33"/>
<path d="M35.2982 26.5071C34.9566 26.7576 34.5012 26.8942 33.9319 26.8942C33.4536 26.8942 33.021 26.8031 32.6794 26.6437C32.315 26.4843 32.0645 26.2566 31.8823 25.9605L32.52 25.3912C32.6567 25.5962 32.8388 25.7556 33.0666 25.8694C33.2943 25.9833 33.5904 26.0516 33.9092 26.0516C34.5241 26.0516 34.8201 25.8695 34.8201 25.5051C34.8201 25.3457 34.7745 25.2318 34.6606 25.1407C34.5696 25.0496 34.3873 24.9813 34.1596 24.9358L33.2715 24.7764C32.8616 24.708 32.5428 24.5486 32.3151 24.3437C32.0874 24.116 31.9962 23.8427 31.9962 23.4783C31.9962 23.0456 32.1556 22.704 32.4972 22.4535C32.8388 22.203 33.2943 22.0664 33.8636 22.0664C34.2735 22.0664 34.6606 22.1575 34.9794 22.3169C35.321 22.4991 35.5488 22.704 35.731 22.9773L35.0705 23.4783C34.9566 23.2961 34.7973 23.1595 34.5696 23.0456C34.3419 22.9318 34.0914 22.8862 33.7953 22.8862C33.5221 22.8862 33.317 22.9318 33.1576 23.0229C33.021 23.1139 32.9299 23.2506 32.9299 23.41C32.9299 23.5466 32.9755 23.6605 33.0666 23.7516C33.1576 23.8199 33.3171 23.8882 33.522 23.9338L34.524 24.116C34.9111 24.1843 35.2299 24.3437 35.4349 24.5714C35.6399 24.7991 35.7537 25.0952 35.7537 25.4368C35.7992 25.8922 35.6398 26.2338 35.2982 26.5071Z" fill="#1C2B33"/>
<path d="M37.8486 20.6318H40.1715C40.9458 20.6318 41.5606 20.814 41.9933 21.1556C42.426 21.52 42.6309 22.021 42.6309 22.6814C42.6309 23.3418 42.426 23.8428 41.9933 24.2072C41.5606 24.5715 40.9685 24.7537 40.1715 24.7537H38.8506V26.7805H37.8486V20.6318ZM40.0803 23.8428C40.6041 23.8428 40.9685 23.7517 41.219 23.5468C41.4695 23.3646 41.5833 23.0685 41.5833 22.6814C41.5833 22.2715 41.4695 21.9754 41.219 21.7933C40.9685 21.6111 40.5813 21.52 40.0803 21.52H38.8278V23.8428H40.0803Z" fill="#1C2B33"/>
<path d="M47.5042 26.781H46.5705V26.1434C46.4111 26.3939 46.1834 26.5761 45.9329 26.6899C45.6824 26.8038 45.3863 26.8949 45.0448 26.8949C44.6348 26.8949 44.2932 26.781 43.9744 26.5761C43.6556 26.3711 43.4279 26.0751 43.2457 25.7335C43.0635 25.3691 42.9724 24.9592 42.9724 24.5038C42.9724 24.0255 43.0635 23.6156 43.2457 23.2512C43.4279 22.8869 43.6784 22.6136 43.9972 22.4087C44.316 22.2037 44.6803 22.0898 45.113 22.0898C45.4318 22.0898 45.7052 22.1582 45.9557 22.272C46.2062 22.3859 46.4111 22.5681 46.5705 22.7958V22.2037H47.5042V26.781ZM46.5478 23.7978C46.4339 23.5473 46.2745 23.3423 46.0695 23.1829C45.8418 23.0235 45.5913 22.9552 45.2953 22.9552C44.8854 22.9552 44.5665 23.0918 44.316 23.3651C44.0655 23.6384 43.9516 24.0028 43.9516 24.481C43.9516 24.9592 44.0655 25.3236 44.2932 25.5969C44.5209 25.8701 44.8398 26.0068 45.2497 26.0068C45.5457 26.0068 45.819 25.9384 46.0467 25.779C46.2745 25.6196 46.4339 25.4147 46.5478 25.1642V23.7978Z" fill="#1C2B33"/>
<path d="M48.4835 22.2033H49.4171V22.8865C49.6904 22.3855 50.0775 22.135 50.5557 22.135C50.6468 22.135 50.7379 22.135 50.829 22.1578V23.0459C50.7379 23.0459 50.6241 23.0231 50.533 23.0231C49.9865 23.0231 49.5993 23.2964 49.4171 23.8202V26.7579H48.4607V22.2033H48.4835Z" fill="#1C2B33"/>
<path d="M52.0364 23.0003H51.376V22.1805H52.0364V20.8369H52.9929V22.1805H54.382V23.0003H52.9929V25.0499C52.9929 25.3915 53.0611 25.642 53.175 25.7786C53.2889 25.9152 53.4938 26.0063 53.7671 26.0063C53.9038 26.0063 53.9948 26.0063 54.0859 25.9836C54.177 25.9836 54.2682 25.9608 54.382 25.938V26.7351C54.2682 26.7578 54.1543 26.8034 54.0176 26.8034C53.881 26.8262 53.7444 26.8261 53.585 26.8261C52.5602 26.8261 52.0364 26.2568 52.0364 25.141V23.0003Z" fill="#1C2B33"/>
<path d="M55.156 22.2037H56.0897V22.8641C56.4541 22.3403 56.9323 22.0898 57.5699 22.0898C58.1165 22.0898 58.5264 22.2493 58.8224 22.5908C59.1185 22.9324 59.2551 23.4107 59.2551 24.0483V26.781H58.2986V24.1622C58.2986 23.7295 58.2303 23.4107 58.0709 23.2285C57.9115 23.0235 57.6838 22.9324 57.365 22.9324C57.0917 22.9324 56.8412 23.0008 56.6134 23.1602C56.3857 23.3196 56.2264 23.5018 56.1125 23.775V26.8038H55.156V22.2037Z" fill="#1C2B33"/>
<path d="M62.3295 26.8946C61.874 26.8946 61.4641 26.8035 61.1225 26.5985C60.781 26.3936 60.5077 26.1203 60.3027 25.7559C60.0977 25.3916 60.0066 24.9817 60.0066 24.5262C60.0066 24.048 60.0977 23.6381 60.3027 23.2737C60.4849 22.9094 60.7582 22.6361 61.0998 22.4311C61.4413 22.2262 61.8285 22.1123 62.2612 22.1123C62.6939 22.1123 63.081 22.2262 63.377 22.4311C63.6958 22.6361 63.9235 22.9321 64.1057 23.2965C64.2879 23.6609 64.3562 24.0935 64.3562 24.5945V24.8678H60.9859C61.0542 25.2322 61.1908 25.5282 61.4413 25.7559C61.6918 25.9609 61.9879 26.0748 62.3523 26.0748C62.6483 26.0748 62.8988 26.0292 63.1265 25.9381C63.3315 25.847 63.5364 25.7104 63.7186 25.5282L64.2423 26.1659C63.7186 26.6441 63.081 26.8946 62.3295 26.8946ZM63.0582 23.2509C62.8533 23.046 62.58 22.9321 62.2384 22.9321C61.9196 22.9321 61.6463 23.046 61.4185 23.2509C61.1908 23.4787 61.0542 23.752 61.0087 24.1163H63.4225C63.377 23.752 63.2632 23.4559 63.0582 23.2509Z" fill="#1C2B33"/>
<path d="M65.1758 22.2033H66.1095V22.9093C66.4055 22.3855 66.8154 22.135 67.3164 22.135C67.4758 22.135 67.6125 22.1578 67.7264 22.1806V23.0687C67.5897 23.0459 67.4302 23.0459 67.2936 23.0459C66.7243 23.0459 66.3372 23.2964 66.1323 23.8202V26.8034H65.1758V22.2033Z" fill="#1C2B33"/>
<path d="M25.0274 0.546143H27.5779L31.9047 8.37997L36.2316 0.546143H38.7138V13.4128H36.6415V3.55214L32.8384 10.384H30.88L27.077 3.55214V13.4128H25.0046V0.546143H25.0274Z" fill="#1C2B33"/>
<path d="M45.4095 13.6409C44.453 13.6409 43.6104 13.436 42.8817 13.0033C42.153 12.5706 41.5837 11.9785 41.1737 11.227C40.7638 10.4755 40.5588 9.61016 40.5588 8.63093C40.5588 7.65171 40.7638 6.76357 41.151 6.01207C41.5381 5.26056 42.1074 4.66846 42.8133 4.23578C43.5193 3.8031 44.3391 3.59814 45.2501 3.59814C46.161 3.59814 46.958 3.8031 47.6184 4.23578C48.2788 4.66846 48.7799 5.28333 49.1442 6.0576C49.5086 6.83187 49.6679 7.74279 49.6679 8.79033V9.35965H42.6084C42.745 10.1339 43.0639 10.7716 43.5649 11.2043C44.0659 11.6597 44.7035 11.8874 45.4778 11.8874C46.0926 11.8874 46.6392 11.7963 47.0719 11.6142C47.5273 11.432 47.9372 11.1587 48.3244 10.7716L49.4174 12.1152C48.3471 13.1399 47.0036 13.6409 45.4095 13.6409ZM46.9352 6.01207C46.5025 5.57938 45.9332 5.35165 45.2273 5.35165C44.5441 5.35165 43.9747 5.57938 43.4965 6.03483C43.041 6.49029 42.745 7.10515 42.6084 7.85666H47.664C47.6184 7.08238 47.3679 6.46752 46.9352 6.01207Z" fill="#1C2B33"/>
<path d="M52.1956 5.53391H50.2827V3.82595H52.1956V1.0249H54.1996V3.82595H57.1145V5.53391H54.1996V9.83797C54.1996 10.5439 54.3134 11.0677 54.564 11.3637C54.8145 11.6598 55.2244 11.8192 55.8165 11.8192C56.0897 11.8192 56.2947 11.8192 56.4768 11.7964C56.659 11.7736 56.864 11.7509 57.0917 11.7053V13.3905C56.864 13.4588 56.6135 13.5044 56.3175 13.5499C56.0215 13.5955 55.7254 13.6182 55.4294 13.6182C53.266 13.6182 52.1956 12.4341 52.1956 10.0657V5.53391Z" fill="#1C2B33"/>
<path d="M67.5446 13.4134H65.5861V12.0698C65.2445 12.5708 64.7891 12.9579 64.2426 13.2312C63.696 13.5045 63.0811 13.6411 62.3979 13.6411C61.5553 13.6411 60.8039 13.4361 60.1435 13.0035C59.483 12.5708 58.9821 11.9787 58.595 11.2272C58.2306 10.4757 58.0256 9.61033 58.0256 8.6311C58.0256 7.65187 58.2078 6.7865 58.595 6.035C58.9821 5.2835 59.5058 4.69141 60.1663 4.25873C60.8267 3.82605 61.601 3.62109 62.4891 3.62109C63.1495 3.62109 63.7416 3.75772 64.2426 4.00822C64.7436 4.25872 65.1991 4.62309 65.5406 5.07854V3.84882H67.4991L67.5446 13.4134ZM65.5406 7.19641C65.3357 6.64986 64.9941 6.21719 64.5159 5.89837C64.0604 5.57955 63.5139 5.42013 62.9218 5.42013C62.0564 5.42013 61.3732 5.71618 60.8722 6.2855C60.3712 6.85482 60.1207 7.62909 60.1207 8.60832C60.1207 9.58755 60.3712 10.3846 60.8494 10.9539C61.3504 11.5232 62.0108 11.8193 62.8534 11.8193C63.4683 11.8193 64.0149 11.6599 64.5159 11.3411C64.9941 11.0222 65.3585 10.5895 65.5634 10.043L65.5406 7.19641Z" fill="#1C2B33"/>
<defs>
<linearGradient id="paint0_linear_8913_517" x1="11.8123" y1="7.01598" x2="7.22879" y2="1.00064" gradientUnits="userSpaceOnUse">
<stop offset="0.0006" stop-color="#0867DF"/>
<stop offset="0.4539" stop-color="#0668E1"/>
<stop offset="0.8591" stop-color="#0064E0"/>
</linearGradient>
<linearGradient id="paint1_linear_8913_517" x1="2.87985" y1="3.12174" x2="6.02472" y2="0.730491" gradientUnits="userSpaceOnUse">
<stop offset="0.1323" stop-color="#0064DF"/>
<stop offset="0.9988" stop-color="#0064E0"/>
</linearGradient>
<linearGradient id="paint2_linear_8913_517" x1="1.54448" y1="6.62143" x2="2.80408" y2="3.44574" gradientUnits="userSpaceOnUse">
<stop offset="0.0147" stop-color="#0072EC"/>
<stop offset="0.6881" stop-color="#0064DF"/>
</linearGradient>
<linearGradient id="paint3_linear_8913_517" x1="1.37215" y1="8.91482" x2="1.51785" y2="6.97613" gradientUnits="userSpaceOnUse">
<stop offset="0.0731" stop-color="#007CF6"/>
<stop offset="0.9943" stop-color="#0072EC"/>
</linearGradient>
<linearGradient id="paint4_linear_8913_517" x1="1.45281" y1="9.96714" x2="1.34859" y2="9.19038" gradientUnits="userSpaceOnUse">
<stop offset="0.0731" stop-color="#007FF9"/>
<stop offset="1" stop-color="#007CF6"/>
</linearGradient>
<linearGradient id="paint5_linear_8913_517" x1="1.3916" y1="10.1711" x2="2.04141" y2="11.5515" gradientUnits="userSpaceOnUse">
<stop offset="0.0731" stop-color="#007FF9"/>
<stop offset="1" stop-color="#0082FB"/>
</linearGradient>
<linearGradient id="paint6_linear_8913_517" x1="11.4044" y1="3.49653" x2="12.2639" y2="2.30596" gradientUnits="userSpaceOnUse">
<stop offset="0.2799" stop-color="#007FF8"/>
<stop offset="0.9141" stop-color="#0082FB"/>
</linearGradient>
<linearGradient id="paint7_linear_8913_517" x1="17.9534" y1="1.95415" x2="19.7498" y2="8.57297" gradientUnits="userSpaceOnUse">
<stop stop-color="#0082FB"/>
<stop offset="0.9995" stop-color="#0081FA"/>
</linearGradient>
<linearGradient id="paint8_linear_8913_517" x1="20.1863" y1="8.82405" x2="19.049" y2="11.1261" gradientUnits="userSpaceOnUse">
<stop offset="0.0619" stop-color="#0081FA"/>
<stop offset="1" stop-color="#0080F9"/>
</linearGradient>
<linearGradient id="paint9_linear_8913_517" x1="18.1426" y1="12.3465" x2="19.2074" y2="11.6202" gradientUnits="userSpaceOnUse">
<stop stop-color="#027AF3"/>
<stop offset="1" stop-color="#0080F9"/>
</linearGradient>
<linearGradient id="paint10_linear_8913_517" x1="16.4703" y1="12.4873" x2="17.9515" y2="12.4873" gradientUnits="userSpaceOnUse">
<stop stop-color="#0377EF"/>
<stop offset="0.9994" stop-color="#0279F1"/>
</linearGradient>
<linearGradient id="paint11_linear_8913_517" x1="15.1826" y1="11.6725" x2="16.2466" y2="12.2995" gradientUnits="userSpaceOnUse">
<stop offset="0.0019" stop-color="#0471E9"/>
<stop offset="1" stop-color="#0377EF"/>
</linearGradient>
<linearGradient id="paint12_linear_8913_517" x1="11.9368" y1="7.05799" x2="15.3413" y2="11.3453" gradientUnits="userSpaceOnUse">
<stop offset="0.2765" stop-color="#0867DF"/>
<stop offset="1" stop-color="#0471E9"/>
</linearGradient>
</defs>
</svg>
