<svg width="20" height="20" viewBox="0 0 20 20" fill="none" xmlns="http://www.w3.org/2000/svg">
<path d="M18.132 14.3794C18.1066 14.4908 18.0643 14.5977 18.0066 14.6961C17.5628 15.4295 17.0207 16.0973 16.3958 16.6805C16.2091 16.8317 16.0128 16.9703 15.8082 17.0954L15.3381 17.1255C15.1109 17.0954 14.879 17.0685 14.6565 17.0273C13.651 16.8189 12.6864 16.4443 11.8015 15.9187C10.2831 15.0635 8.92453 13.9898 7.62239 12.8321C6.42957 11.7964 5.33859 10.6465 4.36468 9.39865C3.69559 8.51811 3.10641 7.59324 2.74915 6.53216C2.6614 6.27085 2.60185 6.00004 2.52977 5.74031L2.5 5.25729C2.699 4.65707 3.10015 4.19463 3.52166 3.74961C3.83505 3.42337 4.15784 3.11613 4.4869 2.81048C4.62272 2.68361 4.78666 2.5915 4.96498 2.5419C5.14329 2.4923 5.33077 2.48665 5.5117 2.52542C5.72151 2.5571 5.91061 2.67086 6.0382 2.84215C6.71199 3.74486 7.37795 4.6539 8.07524 5.53443C8.21886 5.70791 8.31121 5.91878 8.34169 6.14286C8.37218 6.36694 8.33957 6.59517 8.24761 6.80139C8.16299 7.02786 8.05174 7.24482 7.94989 7.46496C7.8308 7.71993 7.71171 7.97649 7.58165 8.22671C7.55412 8.2637 7.5417 8.30996 7.54695 8.35593C7.5522 8.40191 7.57472 8.44409 7.60986 8.47377C8.07994 8.95996 8.52809 9.46833 9.02012 9.93552C9.92537 10.8264 10.9047 11.6371 11.9472 12.3586C11.9918 12.3982 12.0492 12.4201 12.1086 12.4201C12.168 12.4201 12.2254 12.3982 12.27 12.3586C12.6508 12.0973 13.0378 11.8439 13.4295 11.5968C13.7026 11.4019 14.0383 11.3183 14.3697 11.3624C14.4709 11.379 14.5685 11.4133 14.658 11.4638C15.6943 12.0603 16.7285 12.66 17.7606 13.2629C18.0928 13.4529 18.2479 13.928 18.132 14.3794Z" fill="#FF5001"/>
</svg>
